<svg width="1332" height="262" viewBox="0 0 1332 262" fill="none" xmlns="http://www.w3.org/2000/svg">
<path d="M323 80.05H325.1C329.7 80.05 333 81.05 335 83.05C337 84.95 338 88.05 338 92.35V140.05C338 146.25 339.4 150.85 342.2 153.85C345.1 156.85 349.2 158.35 354.5 158.35C357.6 158.35 360.45 157.75 363.05 156.55C365.65 155.35 367.6 153.25 368.9 150.25C370.3 147.25 371 143.85 371 140.05V92.35C371 88.05 372 84.95 374 83.05C376 81.05 379.25 80.05 383.75 80.05H385.85C394.55 80.05 398.9 84.15 398.9 92.35V133.9C398.9 145.6 397.2 154.9 393.8 161.8C390.4 168.6 385.4 173.65 378.8 176.95C372.3 180.25 364.2 181.9 354.5 181.9C344.8 181.9 336.65 180.25 330.05 176.95C323.55 173.65 318.6 168.6 315.2 161.8C311.8 154.9 310.1 145.6 310.1 133.9V92.35C310.1 84.15 314.4 80.05 323 80.05ZM429.383 80.05H456.683C468.783 80.05 478.133 83 484.733 88.9C491.333 94.8 494.633 103.15 494.633 113.95C494.633 124.65 491.333 132.95 484.733 138.85C478.133 144.75 468.783 147.7 456.683 147.7H444.533V169.15C444.533 173.25 443.533 176.25 441.533 178.15C439.533 180.05 436.283 181 431.783 181H429.383C424.783 181 421.483 180.1 419.483 178.3C417.583 176.4 416.633 173.35 416.633 169.15V92.2C416.633 88 417.633 84.95 419.633 83.05C421.633 81.05 424.883 80.05 429.383 80.05ZM444.533 126.1H455.183C458.883 126.1 461.883 125.15 464.183 123.25C466.583 121.35 467.783 118.6 467.783 115C467.783 111.3 466.583 108.55 464.183 106.75C461.883 104.85 458.883 103.9 455.183 103.9H444.533V126.1ZM580.454 97.3C580.454 99.9 579.704 102.4 578.204 104.8C576.704 107.1 574.704 108.85 572.204 110.05C564.504 105.15 556.054 102.7 546.854 102.7C543.054 102.7 540.104 103.45 538.004 104.95C535.904 106.35 534.854 108.2 534.854 110.5C534.854 112 535.554 113.4 536.954 114.7C538.354 116 541.404 117.2 546.104 118.3C555.104 120.4 562.354 122.8 567.854 125.5C573.354 128.1 577.504 131.3 580.304 135.1C583.104 138.8 584.504 143.75 584.504 149.95C584.504 154.45 583.504 158.7 581.504 162.7C579.504 166.6 576.654 170.05 572.954 173.05C569.254 175.95 564.754 178.25 559.454 179.95C554.154 181.55 548.404 182.35 542.204 182.35C535.804 182.35 529.554 181.6 523.454 180.1C517.354 178.6 512.654 176.4 509.354 173.5C506.054 170.6 504.404 167.5 504.404 164.2C504.404 161.6 505.054 159 506.354 156.4C507.654 153.8 509.954 151.75 513.254 150.25C514.554 151.65 517.054 153.2 520.754 154.9C524.454 156.6 528.304 157.9 532.304 158.8C536.304 159.6 539.804 160 542.804 160C546.504 160 549.504 159.25 551.804 157.75C554.204 156.25 555.404 154.3 555.404 151.9C555.404 149.8 554.204 148.05 551.804 146.65C549.504 145.25 545.604 144 540.104 142.9C528.804 140.6 520.304 136.95 514.604 131.95C508.904 126.85 506.054 119.9 506.054 111.1C506.054 106.4 507.004 102.05 508.904 98.05C510.804 94.05 513.454 90.6 516.854 87.7C520.354 84.8 524.504 82.6 529.304 81.1C534.204 79.5 539.504 78.7 545.204 78.7C550.304 78.7 555.004 79.1 559.304 79.9C563.704 80.7 567.454 81.9 570.554 83.5C573.754 85 576.204 86.95 577.904 89.35C579.604 91.65 580.454 94.3 580.454 97.3ZM611.609 80.05H614.009C618.509 80.05 621.759 81.05 623.759 83.05C625.759 84.95 626.759 88 626.759 92.2V169.15C626.759 173.25 625.759 176.25 623.759 178.15C621.759 180.05 618.509 181 614.009 181H611.609C607.009 181 603.709 180.1 601.709 178.3C599.809 176.4 598.859 173.35 598.859 169.15V92.2C598.859 88 599.859 84.95 601.859 83.05C603.859 81.05 607.109 80.05 611.609 80.05ZM651.72 80.05H714.42C718.02 80.05 720.82 81.1 722.82 83.2C724.92 85.3 725.97 88.4 725.97 92.5C725.97 96.6 724.92 99.75 722.82 101.95C720.72 104.05 717.92 105.1 714.42 105.1H697.02V169.15C697.02 173.25 696.02 176.25 694.02 178.15C692.02 180.05 688.77 181 684.27 181H681.72C677.22 181 673.97 180.1 671.97 178.3C670.07 176.4 669.12 173.35 669.12 169.15V105.1H651.72C648.22 105.1 645.42 104.05 643.32 101.95C641.22 99.75 640.17 96.6 640.17 92.5C640.17 88.4 641.17 85.3 643.17 83.2C645.27 81.1 648.12 80.05 651.72 80.05ZM752.088 80.05H799.188C802.788 80.05 805.588 81.1 807.588 83.2C809.688 85.3 810.738 88.4 810.738 92.5C810.738 96.6 809.688 99.7 807.588 101.8C805.488 103.9 802.688 104.95 799.188 104.95H767.238V119.8H791.988C795.788 119.8 798.488 120.45 800.088 121.75C801.788 122.95 802.788 124.4 803.088 126.1C803.388 127.8 803.538 129.05 803.538 129.85C803.538 132.65 802.788 135.05 801.288 137.05C799.788 138.95 796.688 139.9 791.988 139.9H767.238V156.25H800.238C803.838 156.25 806.638 157.3 808.638 159.4C810.738 161.4 811.788 164.45 811.788 168.55C811.788 172.65 810.738 175.75 808.638 177.85C806.538 179.95 803.738 181 800.238 181H752.088C747.488 181 744.188 180.1 742.188 178.3C740.288 176.4 739.338 173.35 739.338 169.15V92.2C739.338 88 740.338 84.95 742.338 83.05C744.338 81.05 747.588 80.05 752.088 80.05ZM906.457 100.9C906.457 104.1 905.307 106.9 903.007 109.3C900.707 111.7 897.557 113.15 893.557 113.65C890.557 110.15 887.257 107.85 883.657 106.75C880.157 105.65 876.157 105.1 871.657 105.1C864.957 105.1 859.507 107.4 855.307 112C851.207 116.5 849.157 122.8 849.157 130.9C849.157 139.2 851.207 145.55 855.307 149.95C859.507 154.25 865.057 156.4 871.957 156.4C874.557 156.4 877.207 155.9 879.907 154.9C882.707 153.9 884.957 152.3 886.657 150.1C888.357 147.8 889.207 145.5 889.207 143.2C889.207 142.2 888.607 141.7 887.407 141.7H878.857C876.057 141.7 873.807 140.85 872.107 139.15C870.507 137.45 869.707 135.15 869.707 132.25C869.707 129.45 870.507 127.25 872.107 125.65C873.807 123.95 876.057 123.1 878.857 123.1H903.307C906.307 123.1 908.907 124.15 911.107 126.25C913.407 128.35 914.557 130.9 914.557 133.9V140.65C914.557 145.55 913.657 150.45 911.857 155.35C910.057 160.25 907.307 164.75 903.607 168.85C900.007 172.95 895.357 176.25 889.657 178.75C883.957 181.15 877.507 182.35 870.307 182.35C864.107 182.35 858.057 181.4 852.157 179.5C846.257 177.5 840.907 174.45 836.107 170.35C831.407 166.15 827.607 160.7 824.707 154C821.907 147.3 820.507 139.5 820.507 130.6C820.507 123.9 821.357 117.75 823.057 112.15C824.757 106.55 827.057 101.75 829.957 97.75C832.957 93.75 836.357 90.45 840.157 87.85C843.957 85.15 848.007 83.1 852.307 81.7C856.707 80.2 860.507 79.35 863.707 79.15C866.907 78.85 869.057 78.7 870.157 78.7C876.757 78.7 882.957 79.6 888.757 81.4C894.657 83.2 899.057 85.9 901.957 89.5C904.957 93 906.457 96.8 906.457 100.9ZM939.699 80.05H941.799C946.399 80.05 949.699 81.05 951.699 83.05C953.699 84.95 954.699 88.05 954.699 92.35V140.05C954.699 146.25 956.099 150.85 958.899 153.85C961.799 156.85 965.899 158.35 971.199 158.35C974.299 158.35 977.149 157.75 979.749 156.55C982.349 155.35 984.299 153.25 985.599 150.25C986.999 147.25 987.699 143.85 987.699 140.05V92.35C987.699 88.05 988.699 84.95 990.699 83.05C992.699 81.05 995.949 80.05 1000.45 80.05H1002.55C1011.25 80.05 1015.6 84.15 1015.6 92.35V133.9C1015.6 145.6 1013.9 154.9 1010.5 161.8C1007.1 168.6 1002.1 173.65 995.499 176.95C988.999 180.25 980.899 181.9 971.199 181.9C961.499 181.9 953.349 180.25 946.749 176.95C940.249 173.65 935.299 168.6 931.899 161.8C928.499 154.9 926.799 145.6 926.799 133.9V92.35C926.799 84.15 931.099 80.05 939.699 80.05ZM1073.83 79.9H1077.13C1079.93 79.9 1082.83 80.4 1085.83 81.4C1088.93 82.4 1091.68 84.2 1094.08 86.8C1096.58 89.4 1098.43 92.45 1099.63 95.95C1109.03 123.65 1115.98 146.35 1120.48 164.05C1121.38 167.95 1121.83 170.45 1121.83 171.55C1121.83 177.85 1117.63 181 1109.23 181H1105.33C1101.43 181 1098.38 180.2 1096.18 178.6C1094.08 177 1092.53 174.8 1091.53 172C1090.63 169.1 1089.48 164.15 1088.08 157.15H1062.88C1061.38 164.55 1060.08 169.7 1058.98 172.6C1057.88 175.4 1056.28 177.5 1054.18 178.9C1052.18 180.3 1049.33 181 1045.63 181H1041.73C1033.33 181 1029.13 178.15 1029.13 172.45C1029.13 170.25 1029.58 167.45 1030.48 164.05C1036.28 141.15 1043.23 118.45 1051.33 95.95C1053.33 90.45 1056.33 86.4 1060.33 83.8C1064.33 81.2 1068.83 79.9 1073.83 79.9ZM1066.18 136.45H1084.78C1082.18 124.05 1079.08 113.5 1075.48 104.8C1072.38 111.5 1069.28 122.05 1066.18 136.45ZM1149.79 80.05H1180.09C1185.79 80.05 1190.99 80.8 1195.69 82.3C1200.49 83.7 1204.59 85.8 1207.99 88.6C1211.39 91.4 1213.99 94.9 1215.79 99.1C1217.69 103.2 1218.64 107.8 1218.64 112.9C1218.64 117.9 1217.69 122.25 1215.79 125.95C1213.99 129.65 1211.54 132.7 1208.44 135.1C1205.34 137.4 1201.99 139.05 1198.39 140.05C1201.39 145.15 1205.24 150.2 1209.94 155.2C1214.74 160.2 1219.39 163.7 1223.89 165.7C1223.69 168.5 1222.74 171.35 1221.04 174.25C1219.44 177.05 1217.39 179.05 1214.89 180.25C1212.49 181.45 1209.99 182.05 1207.39 182.05C1205.69 182.05 1203.79 181.75 1201.69 181.15C1199.59 180.65 1197.24 179.5 1194.64 177.7C1192.04 175.8 1189.54 173.2 1187.14 169.9C1184.74 166.6 1182.69 163.35 1180.99 160.15C1179.29 156.85 1177.69 153.6 1176.19 150.4C1174.69 147.2 1173.69 145.1 1173.19 144.1H1164.94V169.15C1164.94 173.35 1163.94 176.4 1161.94 178.3C1159.94 180.1 1156.69 181 1152.19 181H1150.09C1146.59 181 1143.94 180.7 1142.14 180.1C1140.34 179.4 1139.04 178.3 1138.24 176.8C1137.54 175.3 1137.19 172.85 1137.19 169.45V92.2C1137.19 87.9 1138.19 84.8 1140.19 82.9C1142.19 81 1145.39 80.05 1149.79 80.05ZM1164.94 125.2H1178.14C1181.84 125.2 1184.94 124.25 1187.44 122.35C1190.04 120.45 1191.34 117.8 1191.34 114.4C1191.34 110.8 1190.09 108.1 1187.59 106.3C1185.19 104.5 1182.04 103.6 1178.14 103.6H1164.94V125.2ZM1249.84 80.05H1274.29C1291.19 80.05 1304.09 84.3 1312.99 92.8C1321.89 101.3 1326.34 113.8 1326.34 130.3C1326.34 146.9 1321.84 159.5 1312.84 168.1C1303.94 176.7 1291.09 181 1274.29 181H1249.84C1245.34 181 1242.09 180.1 1240.09 178.3C1238.19 176.4 1237.24 173.35 1237.24 169.15V92.05C1237.24 87.85 1238.24 84.8 1240.24 82.9C1242.24 81 1245.44 80.05 1249.84 80.05ZM1264.99 155.65H1277.59C1284.19 155.65 1289.49 153.45 1293.49 149.05C1297.49 144.55 1299.49 138.4 1299.49 130.6C1299.49 122.7 1297.49 116.55 1293.49 112.15C1289.49 107.65 1284.19 105.4 1277.59 105.4H1264.99V155.65Z" fill="url(#paint0_linear_5_47)"/>
<ellipse cx="128.5" cy="131" rx="93.5" ry="94" fill="url(#paint1_radial_5_47)"/>
<path d="M204.696 37L172.683 68.5676L134.613 82.8378L29.0565 63.8108L44.6304 153.324M44.6304 153.324L23 229M44.6304 153.324L146.293 174.081L172.683 193.541L222 220.784" stroke="url(#paint2_linear_5_47)" stroke-width="3"/>
<circle cx="218.5" cy="21.5" r="21.5" fill="url(#paint3_linear_5_47)"/>
<ellipse cx="27.5" cy="59" rx="25.5" ry="25" fill="url(#paint4_linear_5_47)"/>
<ellipse cx="238" cy="231.5" rx="23" ry="22.5" fill="url(#paint5_linear_5_47)"/>
<circle cx="17.5" cy="244.5" r="17.5" fill="url(#paint6_linear_5_47)"/>
<circle cx="43.5" cy="154.5" r="23.5" fill="url(#paint7_linear_5_47)"/>
<ellipse cx="155" cy="82.5" rx="22" ry="22.5" fill="url(#paint8_linear_5_47)"/>
<ellipse cx="146.5" cy="178" rx="36.5" ry="37" fill="url(#paint9_linear_5_47)"/>
<defs>
<linearGradient id="paint0_linear_5_47" x1="175.5" y1="73.5001" x2="1368" y2="131" gradientUnits="userSpaceOnUse">
<stop stop-color="#1A487C"/>
<stop offset="1" stop-color="#4C95CE"/>
</linearGradient>
<radialGradient id="paint1_radial_5_47" cx="0" cy="0" r="1" gradientUnits="userSpaceOnUse" gradientTransform="translate(128.5 131) rotate(90.2428) scale(118.001 117.373)">
<stop stop-color="#C7DEF0"/>
<stop offset="1" stop-color="#9FC2E3"/>
</radialGradient>
<linearGradient id="paint2_linear_5_47" x1="122.5" y1="37" x2="122.5" y2="229" gradientUnits="userSpaceOnUse">
<stop stop-color="#6095CB"/>
<stop offset="1" stop-color="#63A7DC"/>
</linearGradient>
<linearGradient id="paint3_linear_5_47" x1="188.657" y1="6.41791" x2="231.336" y2="36.903" gradientUnits="userSpaceOnUse">
<stop stop-color="#265A8F"/>
<stop offset="1" stop-color="#4992CA"/>
</linearGradient>
<linearGradient id="paint4_linear_5_47" x1="-7.89552" y1="41.4627" x2="42.0423" y2="77.846" gradientUnits="userSpaceOnUse">
<stop stop-color="#265A8F"/>
<stop offset="1" stop-color="#4992CA"/>
</linearGradient>
<linearGradient id="paint5_linear_5_47" x1="206.075" y1="215.716" x2="251.049" y2="248.555" gradientUnits="userSpaceOnUse">
<stop stop-color="#265A8F"/>
<stop offset="1" stop-color="#4992CA"/>
</linearGradient>
<linearGradient id="paint6_linear_5_47" x1="-6.79104" y1="232.224" x2="27.9478" y2="257.037" gradientUnits="userSpaceOnUse">
<stop stop-color="#265A8F"/>
<stop offset="1" stop-color="#4992CA"/>
</linearGradient>
<linearGradient id="paint7_linear_5_47" x1="10.8806" y1="138.015" x2="57.5299" y2="171.336" gradientUnits="userSpaceOnUse">
<stop stop-color="#265A8F"/>
<stop offset="1" stop-color="#4992CA"/>
</linearGradient>
<linearGradient id="paint8_linear_5_47" x1="124.463" y1="66.7164" x2="168.793" y2="97.677" gradientUnits="userSpaceOnUse">
<stop stop-color="#265A8F"/>
<stop offset="1" stop-color="#4992CA"/>
</linearGradient>
<linearGradient id="paint9_linear_5_47" x1="95.8358" y1="152.045" x2="168.954" y2="203.566" gradientUnits="userSpaceOnUse">
<stop stop-color="#265A8F"/>
<stop offset="1" stop-color="#4992CA"/>
</linearGradient>
</defs>
</svg>
